<?xml version="1.0" encoding="utf-8"?>
<!-- Generator: Adobe Illustrator 25.0.0, SVG Export Plug-In . SVG Version: 6.00 Build 0)  -->
<svg version="1.1" id="Calque_1" xmlns="http://www.w3.org/2000/svg" xmlns:xlink="http://www.w3.org/1999/xlink" x="0px" y="0px"
	 viewBox="0 0 1728 1296" style="enable-background:new 0 0 1728 1296;" xml:space="preserve">
<style type="text/css">
	.st0{fill:url(#SVGID_1_);}
	.st1{fill:url(#SVGID_2_);}
	.st2{fill:url(#SVGID_3_);}
	.st3{fill:url(#SVGID_4_);}
	.st4{fill:none;stroke:#000000;stroke-miterlimit:10;}
	.st5{fill:url(#SVGID_5_);}
	.st6{fill:url(#SVGID_6_);}
	.st7{fill:url(#SVGID_7_);}
	.st8{clip-path:url(#SVGID_9_);}
	.st9{fill:url(#SVGID_10_);}
	.st10{fill:url(#SVGID_11_);}
	.st11{fill:url(#SVGID_12_);}
	.st12{fill:url(#SVGID_13_);}
	.st13{fill:url(#SVGID_14_);}
	.st14{fill:url(#SVGID_15_);}
	.st15{fill:url(#SVGID_16_);}
	.st16{fill:url(#SVGID_17_);}
	.st17{fill:url(#SVGID_18_);}
	.st18{display:none;}
	.st19{display:inline;}
	.st20{display:inline;fill:none;stroke:#000000;stroke-miterlimit:10;}
	.st21{display:inline;fill:url(#SVGID_19_);stroke:#000000;stroke-miterlimit:10;}
	.st22{fill:url(#SVGID_20_);stroke:#000000;stroke-miterlimit:10;}
	.st23{display:inline;fill:url(#SVGID_21_);stroke:#000000;stroke-miterlimit:10;}
	.st24{fill:url(#SVGID_22_);stroke:#000000;stroke-miterlimit:10;}
	.st25{display:inline;fill:url(#SVGID_23_);stroke:#000000;stroke-miterlimit:10;}
	.st26{fill:url(#SVGID_24_);stroke:#000000;stroke-miterlimit:10;}
	.st27{display:inline;fill:url(#SVGID_25_);stroke:#000000;stroke-miterlimit:10;}
	.st28{fill:url(#SVGID_26_);stroke:#000000;stroke-miterlimit:10;}
	.st29{display:inline;fill:url(#SVGID_27_);stroke:#000000;stroke-miterlimit:10;}
	.st30{fill:url(#SVGID_28_);stroke:#000000;stroke-miterlimit:10;}
	.st31{fill:url(#SVGID_29_);stroke:#000000;stroke-miterlimit:10;}
	.st32{fill:url(#SVGID_30_);}
	.st33{fill:url(#SVGID_31_);}
	.st34{fill:url(#SVGID_32_);}
	.st35{fill:url(#SVGID_33_);}
	.st36{fill:url(#SVGID_34_);}
	.st37{fill:url(#SVGID_35_);}
	.st38{fill:url(#SVGID_36_);}
	.st39{fill:url(#SVGID_37_);}
	.st40{fill:url(#SVGID_38_);}
	.st41{fill:url(#SVGID_39_);}
	.st42{fill:url(#SVGID_40_);}
	.st43{fill:url(#SVGID_41_);}
	.st44{fill:url(#SVGID_42_);}
	.st45{fill:url(#SVGID_43_);}
	.st46{fill:url(#SVGID_44_);}
	.st47{fill:url(#SVGID_45_);}
	.st48{fill:url(#SVGID_46_);}
	.st49{fill:#FFFFFF;}
	.st50{fill:url(#SVGID_47_);}
	.st51{fill:#6B03FF;}
</style>
<linearGradient id="SVGID_1_" gradientUnits="userSpaceOnUse" x1="329.9979" y1="624.0594" x2="575.7589" y2="624.0594">
	<stop  offset="0.2346" style="stop-color:#AE30FF"/>
	<stop  offset="0.3666" style="stop-color:#AB33FF"/>
	<stop  offset="0.4802" style="stop-color:#A03EFF"/>
	<stop  offset="0.587" style="stop-color:#8F50FF"/>
	<stop  offset="0.6898" style="stop-color:#7669FF"/>
	<stop  offset="0.7896" style="stop-color:#5689FF"/>
	<stop  offset="0.8859" style="stop-color:#30B0FF"/>
	<stop  offset="0.9209" style="stop-color:#20C0FF"/>
</linearGradient>
<path class="st0" d="M575.06,680.34c0,0-0.01-0.05-0.04-0.15c-0.01-0.03-0.02-0.06-0.04-0.1c-0.23-0.8-1.02-3.42-2.12-6.74
	c-0.01-0.01-0.01-0.02-0.01-0.03c-4.34-13.08-16.96-42.48-45.84-55.88c-6.56-3.05-13.61-4.9-20.79-5.63
	c-2.6-0.28-5.21-0.4-7.83-0.38l-58.35,0.46l-4.8,0.04l-61.17,0.48l-59.11-44.08c80.09,0,194.44-1.24,206.36,0
	C530.24,569.27,596.25,589.53,575.06,680.34z"/>
<linearGradient id="SVGID_2_" gradientUnits="userSpaceOnUse" x1="445.8729" y1="683.7399" x2="462.1487" y2="613.2178">
	<stop  offset="0" style="stop-color:#06BCFF"/>
	<stop  offset="0.1873" style="stop-color:#17A4FF"/>
	<stop  offset="0.5843" style="stop-color:#4165FF"/>
	<stop  offset="0.9874" style="stop-color:#7120FF"/>
</linearGradient>
<polyline class="st1" points="440.04,611.89 488.14,611.89 470.51,694.85 416.58,694.85 435.24,611.93 "/>
<radialGradient id="SVGID_3_" cx="488.305" cy="724.2441" r="81.9305" gradientUnits="userSpaceOnUse">
	<stop  offset="0.2896" style="stop-color:#9720FF"/>
	<stop  offset="0.3732" style="stop-color:#9425FF"/>
	<stop  offset="0.471" style="stop-color:#8A33FF"/>
	<stop  offset="0.576" style="stop-color:#7A4BFF"/>
	<stop  offset="0.686" style="stop-color:#636CFF"/>
	<stop  offset="0.8001" style="stop-color:#4696FF"/>
	<stop  offset="0.9156" style="stop-color:#23C9FF"/>
	<stop  offset="1" style="stop-color:#06F3FF"/>
</radialGradient>
<path class="st2" d="M575.06,680.02c-0.01,0.06-0.03,0.11-0.04,0.17c-5.7,21.51-12.64,103.79-173.47,85.7c0,0,12.96-38.84,42-40.42
	c11.72-0.64,26.48-0.26,43.46-2.61l0.01-0.01h0.01c22.77-3.16,49.53-11.24,78.33-33.27c0.05-0.04,0.1-0.08,0.14-0.12
	c2.85-2.18,6.57-6.86,9.48-9.37C575.01,680.06,575.03,680.04,575.06,680.02z"/>
<linearGradient id="SVGID_4_" gradientUnits="userSpaceOnUse" x1="487.03" y1="667.33" x2="574.2174" y2="667.33">
	<stop  offset="0" style="stop-color:#06F3FF"/>
	<stop  offset="0.08" style="stop-color:#18CFFF"/>
	<stop  offset="0.1959" style="stop-color:#30A1FF"/>
	<stop  offset="0.3163" style="stop-color:#4479FF"/>
	<stop  offset="0.4394" style="stop-color:#5459FF"/>
	<stop  offset="0.566" style="stop-color:#6140FF"/>
	<stop  offset="0.6976" style="stop-color:#6A2EFF"/>
	<stop  offset="0.8376" style="stop-color:#6F23FF"/>
	<stop  offset="1" style="stop-color:#7120FF"/>
</linearGradient>
<path class="st3" d="M573.93,676.57c0.68,2.04,0.15,4.28-1.34,5.83c-2.38,2.46-4.97,5.45-7.08,7.06c-0.04,0.04-0.09,0.08-0.14,0.12
	c-28.8,22.03-55.56,30.11-78.33,33.27c8.57-3.47,32.55-17.04,36.37-61.18c4.47-51.77-13.02-42.85-17.18-49.86
	c7.18,0.73,14.23,2.58,20.79,5.63c28.88,13.4,41.5,42.8,45.84,55.88c0,0.01,0,0.02,0.01,0.03L573.93,676.57z"/>
<path class="st4" d="M484.06,723.87c-0.01,0.01-0.03,0.01-0.04,0.01"/>
<g>
	<g>
		<linearGradient id="SVGID_5_" gradientUnits="userSpaceOnUse" x1="611.5168" y1="749.4737" x2="770.1349" y2="749.4737">
			<stop  offset="0" style="stop-color:#6A30FF"/>
			<stop  offset="1" style="stop-color:#20C0FF"/>
		</linearGradient>
		<path class="st5" d="M661.95,738.36c0,0,30.58,24.95,108.19-6.96c0,0-40.6,39.61-92.22,35.91c-21.09-1.51-46.85-10.34-66.4-30.52
			C611.52,736.79,631.93,745.12,661.95,738.36z"/>
		<linearGradient id="SVGID_6_" gradientUnits="userSpaceOnUse" x1="595.9586" y1="664.8629" x2="694.3916" y2="664.8629">
			<stop  offset="0" style="stop-color:#6A30FF"/>
			<stop  offset="1" style="stop-color:#20C0FF"/>
		</linearGradient>
		<path class="st6" d="M604.94,630.34c-9.56,21.95-12.43,50.48-3.98,86.15c0,0,25.09,3.45,45.52-3.29c0,0-14.94-67.39,25.11-89.57
			c8.13-4.5,15.91-6,22.81-5.32C657.07,605.04,626.29,616.09,604.94,630.34z"/>
		<linearGradient id="SVGID_7_" gradientUnits="userSpaceOnUse" x1="567.3594" y1="654.2959" x2="763.111" y2="654.2959">
			<stop  offset="0" style="stop-color:#B330FF"/>
			<stop  offset="0.1467" style="stop-color:#AE33FF"/>
			<stop  offset="0.315" style="stop-color:#A03DFF"/>
			<stop  offset="0.4939" style="stop-color:#894EFF"/>
			<stop  offset="0.6802" style="stop-color:#6965FF"/>
			<stop  offset="0.8703" style="stop-color:#4083FF"/>
			<stop  offset="1" style="stop-color:#209AFF"/>
		</linearGradient>
		<path class="st7" d="M730.36,581.34c-35.29-19.62-101.44-6.09-125.42,49.01c21.35-14.25,52.13-25.3,89.45-12.03
			c21.78,2.16,34.73,26.2,21.86,47c-16.95,27.39-70.72,78.56-148.89,47.06c0,0,48.98,45.98,129.3,9
			C776.98,684.4,779.72,608.78,730.36,581.34z"/>
	</g>
</g>
<g>
	<g>
		<defs>
			<path id="SVGID_8_" d="M961.66,551.08c-38.75,10.66-53.91,57.27-53.91,57.27s-14.6-28.07-4.77-52.22
				c9.82-24.15,39.3-22.46,39.3-22.46c-25.83,16-21.9,26.95-21.9,26.95s10.24-13.76,20.78-13.48
				C959.69,547.71,961.66,551.08,961.66,551.08z"/>
		</defs>
		<clipPath id="SVGID_9_">
			<use xlink:href="#SVGID_8_"  style="overflow:visible;"/>
		</clipPath>
		<g class="st8">
		</g>
	</g>
</g>
<linearGradient id="SVGID_10_" gradientUnits="userSpaceOnUse" x1="921.9738" y1="630.8668" x2="976.4274" y2="541.1737">
	<stop  offset="0" style="stop-color:#FF00FF"/>
	<stop  offset="0.3243" style="stop-color:#A600FF"/>
	<stop  offset="0.6478" style="stop-color:#5300FF"/>
	<stop  offset="0.7944" style="stop-color:#3200FF"/>
</linearGradient>
<path class="st9" d="M969.71,570.41c-9.89,30.56-35.36,71.83-44.11,85.5c-1.87,2.96-2.98,4.62-2.98,4.62
	c-25.15-85.69,50.3-102.45,50.3-102.45C977.21,556.18,971.14,566.04,969.71,570.41z"/>
<linearGradient id="SVGID_11_" gradientUnits="userSpaceOnUse" x1="865.81" y1="660.06" x2="973.85" y2="660.06">
	<stop  offset="0" style="stop-color:#001AFF"/>
	<stop  offset="0.1019" style="stop-color:#0122FF"/>
	<stop  offset="0.2629" style="stop-color:#0539FF"/>
	<stop  offset="0.4628" style="stop-color:#0B5EFF"/>
	<stop  offset="0.694" style="stop-color:#1392FF"/>
	<stop  offset="0.9484" style="stop-color:#1ED3FF"/>
	<stop  offset="1" style="stop-color:#20E1FF"/>
</linearGradient>
<path class="st10" d="M953.33,670.93c-2.47,5.19-5.25,10.06-8.35,14.43c-3.16,6.69-6.79,12.97-10.72,18.79
	c-9.57,13.21-19.78,23.44-29.32,31.25c-2.4,1.96-4.73,3.78-7.02,5.44c-5.72,4.18-11.04,7.46-15.64,10l-5.37,2.44l-10.95,4.99
	c-0.03,0.01-0.06,0.01-0.09,0.03l-0.06,0.01c1.15-1,2.28-2.17,3.39-3.49c12.35-14.66,21.75-46.79,21.75-46.79
	c0.17-0.15,0.32-0.3,0.48-0.45c0.36-0.36,0.74-0.72,1.11-1.12c8.56-8.87,20.74-28.51,33.06-50.55c8.75-13.67,34.22-54.94,44.11-85.5
	c2.64-5.42,4.14-8.6,4.14-8.6s0,48.05-12.75,88.93L953.33,670.93z"/>
<path class="st4" d="M798.25,640.81c0.48,0.79,1.18,1.89,2.13,3.22l65.42,114.3 M899.56,748.1c0.56,0,3.2-1.76,3.83-2.18
	C902.13,746.67,900.86,747.4,899.56,748.1z"/>
<linearGradient id="SVGID_12_" gradientUnits="userSpaceOnUse" x1="749.38" y1="618.313" x2="858.35" y2="618.313">
	<stop  offset="0" style="stop-color:#FF00FF"/>
	<stop  offset="0.0997" style="stop-color:#F703FF"/>
	<stop  offset="0.2573" style="stop-color:#E00AFF"/>
	<stop  offset="0.453" style="stop-color:#BB16FF"/>
	<stop  offset="0.6793" style="stop-color:#8727FF"/>
	<stop  offset="0.9283" style="stop-color:#463CFF"/>
	<stop  offset="1" style="stop-color:#3242FF"/>
</linearGradient>
<path class="st11" d="M802.81,645.9c0.82,0.87,1.64,1.71,2.45,2.52c0.43,0.43,0.85,0.85,1.28,1.26c0.31,0.3,0.61,0.59,0.92,0.87
	c0.38,0.37,0.77,0.73,1.15,1.07c0.51,0.48,1.03,0.94,1.54,1.39c0.43,0.38,0.86,0.75,1.29,1.11c0.37,0.32,0.75,0.63,1.13,0.94
	c0.35,0.3,0.7,0.58,1.05,0.86c0.39,0.31,0.77,0.61,1.15,0.91c0.09,0.07,0.18,0.14,0.26,0.2c0.33,0.26,0.66,0.51,0.99,0.76
	c0.57,0.43,1.14,0.84,1.7,1.24c0.31,0.22,0.62,0.44,0.93,0.66c0.61,0.43,1.22,0.85,1.82,1.25c0.46,0.3,0.92,0.6,1.37,0.89
	c1.17,0.75,2.34,1.46,3.48,2.12c0.35,0.2,0.69,0.4,1.03,0.58c1.17,0.67,2.33,1.28,3.47,1.85c0.47,0.24,0.94,0.48,1.41,0.7
	c2.03,0.98,3.99,1.82,5.87,2.56c0.45,0.18,0.89,0.35,1.32,0.5c2.27,0.85,4.42,1.53,6.39,2.08c0.39,0.11,0.76,0.21,1.13,0.31
	c0.39,0.1,0.78,0.2,1.16,0.29c0.37,0.09,0.73,0.18,1.08,0.25c0.08,0.02,0.17,0.04,0.25,0.06c0.96,0.22,1.87,0.4,2.71,0.55
	c4.51,0.83,7.21,0.83,7.21,0.83s-38.18-9.32-41.91-37.26s-1.87-50.49-1.87-50.49c-32.6-29.81-65.19-24.23-65.19-24.23
	s0.04,0.08,0.12,0.23c1.1,1.81,8.62,14.31,18.65,32.43c0,0.01,0.02,0.03,0.03,0.04c3.22,5.83,6.71,12.22,10.29,19.04
	c0,0.03,0.01,0.04,0.03,0.06c3.14,4.68,6.39,9.34,9.72,13.82c3.31,4.47,6.67,8.74,10.02,12.65v0.01h0.01L802.81,645.9z"/>
<radialGradient id="SVGID_13_" cx="824.695" cy="657.245" r="22.0164" gradientUnits="userSpaceOnUse">
	<stop  offset="0.3382" style="stop-color:#001AFF"/>
	<stop  offset="0.4164" style="stop-color:#011FFF"/>
	<stop  offset="0.5109" style="stop-color:#032EFF"/>
	<stop  offset="0.6139" style="stop-color:#0746FF"/>
	<stop  offset="0.7229" style="stop-color:#0D68FF"/>
	<stop  offset="0.8366" style="stop-color:#1494FF"/>
	<stop  offset="0.9526" style="stop-color:#1CC9FF"/>
	<stop  offset="1" style="stop-color:#20E1FF"/>
</radialGradient>
<path class="st12" d="M851.14,673.68l-48.33-27.78l-1.86-1.07c-0.02-0.02-0.03-0.04-0.04-0.06c-0.4-0.61-0.74-1.14-1.01-1.58
	l0.48,0.84c-0.95-1.33-1.65-2.43-2.13-3.22L851.14,673.68z"/>
<radialGradient id="SVGID_14_" cx="826.975" cy="659.79" r="19.7089" gradientUnits="userSpaceOnUse">
	<stop  offset="0.3382" style="stop-color:#001AFF"/>
	<stop  offset="0.4164" style="stop-color:#011FFF"/>
	<stop  offset="0.5109" style="stop-color:#032EFF"/>
	<stop  offset="0.6139" style="stop-color:#0746FF"/>
	<stop  offset="0.7229" style="stop-color:#0D68FF"/>
	<stop  offset="0.8366" style="stop-color:#1494FF"/>
	<stop  offset="0.9526" style="stop-color:#1CC9FF"/>
	<stop  offset="1" style="stop-color:#20E1FF"/>
</radialGradient>
<path class="st13" d="M802.81,645.9c0.82,0.87,1.64,1.71,2.45,2.52c0.43,0.43,0.85,0.85,1.28,1.26c0.31,0.3,0.62,0.59,0.92,0.87
	c0.38,0.37,0.77,0.73,1.15,1.07c0.51,0.48,1.03,0.94,1.54,1.39c0.43,0.38,0.86,0.75,1.29,1.11c0.38,0.33,0.76,0.64,1.13,0.94
	c0.35,0.3,0.7,0.58,1.05,0.86c0.39,0.31,0.77,0.61,1.15,0.91c0.09,0.07,0.18,0.14,0.26,0.2c0.33,0.26,0.66,0.51,0.99,0.76
	c0.57,0.43,1.14,0.84,1.7,1.24c0.31,0.23,0.62,0.45,0.93,0.66c0.61,0.43,1.22,0.85,1.82,1.25c0.46,0.3,0.91,0.6,1.37,0.89
	c1.17,0.75,2.34,1.46,3.48,2.12c0.35,0.2,0.69,0.4,1.03,0.58c1.17,0.67,2.33,1.28,3.47,1.85c0.47,0.24,0.94,0.48,1.41,0.7
	c2.03,0.98,3.99,1.82,5.87,2.56c0.44,0.17,0.88,0.34,1.32,0.5c2.27,0.85,4.42,1.53,6.39,2.08c0.38,0.11,0.76,0.21,1.13,0.31
	c0.39,0.1,0.78,0.2,1.16,0.29c0.37,0.09,0.73,0.17,1.08,0.25c0.08,0.02,0.17,0.04,0.25,0.06c0.96,0.22,1.87,0.4,2.71,0.55
	L802.81,645.9z"/>
<radialGradient id="SVGID_15_" cx="852.5581" cy="644.835" r="49.2506" gradientUnits="userSpaceOnUse">
	<stop  offset="0.3382" style="stop-color:#001AFF"/>
	<stop  offset="0.4164" style="stop-color:#011FFF"/>
	<stop  offset="0.5109" style="stop-color:#032EFF"/>
	<stop  offset="0.6139" style="stop-color:#0746FF"/>
	<stop  offset="0.7229" style="stop-color:#0D68FF"/>
	<stop  offset="0.8366" style="stop-color:#1494FF"/>
	<stop  offset="0.9526" style="stop-color:#1CC9FF"/>
	<stop  offset="1" style="stop-color:#20E1FF"/>
</radialGradient>
<path class="st14" d="M814.57,586.76c0,0-1.86,22.55,1.87,50.49s41.91,37.26,41.91,37.26s-2.7,0-7.21-0.83l19.08,10.97
	c0.72,0.08,1.45,0.15,2.18,0.22c0.01,0,0.01,0,0.01,0c3.55,0.33,7.25,0.49,11.09,0.49l5.27,12.31l2.24,5.24
	c-0.72-2.9-1.47-5.69-2.24-8.24c-1.68-5.52-3.46-9.95-5.27-12.3c0,0-4.38,1.94-11.09-0.5c0,0,0,0-0.01,0
	c-4-1.44-8.82-4.45-14.05-10.36c0,0-0.27,0-0.76-0.03c-1.74-0.15-3.34-0.76-4.79-1.69c0,0-0.02,0-0.03-0.02
	c-5.92-3.73-9.31-12.23-9.31-12.23s0,7.44-7.46,0c-7.46-7.46-2.8-23.28-2.8-23.28C817.37,628.67,814.57,586.76,814.57,586.76
	L814.57,586.76z"/>
<radialGradient id="SVGID_16_" cx="902.2132" cy="636.6588" r="138.2388" fx="975.4741" fy="733.9155" gradientUnits="userSpaceOnUse">
	<stop  offset="0.3382" style="stop-color:#001AFF"/>
	<stop  offset="0.4164" style="stop-color:#011FFF"/>
	<stop  offset="0.5109" style="stop-color:#032EFF"/>
	<stop  offset="0.6139" style="stop-color:#0746FF"/>
	<stop  offset="0.7229" style="stop-color:#0D68FF"/>
	<stop  offset="0.8366" style="stop-color:#1494FF"/>
	<stop  offset="0.9526" style="stop-color:#1CC9FF"/>
	<stop  offset="1" style="stop-color:#20E1FF"/>
</radialGradient>
<path class="st15" d="M798.25,640.81h-0.01v-0.01c-3.35-3.91-6.71-8.18-10.02-12.65c-3.33-4.48-6.58-9.14-9.72-13.82
	c29.12,54.98,66.48,136.57,43.53,155.9c0,0,43.75-3.63,77.53-22.13c-0.06,0-0.09-0.02-0.1-0.07c-0.14,0.07-0.27,0.13-0.41,0.21
	c-6.62,3.33-13.82,6.01-21.66,7.93c-3.72,0.9-7.58,1.62-11.59,2.16L798.25,640.81z"/>
<linearGradient id="SVGID_17_" gradientUnits="userSpaceOnUse" x1="865.8" y1="660.0699" x2="974.0731" y2="660.0699">
	<stop  offset="0" style="stop-color:#FF00FF"/>
	<stop  offset="0.0997" style="stop-color:#F703FF"/>
	<stop  offset="0.2573" style="stop-color:#E00AFF"/>
	<stop  offset="0.453" style="stop-color:#BB16FF"/>
	<stop  offset="0.6793" style="stop-color:#8727FF"/>
	<stop  offset="0.9283" style="stop-color:#463CFF"/>
	<stop  offset="1" style="stop-color:#3242FF"/>
</linearGradient>
<path class="st16" d="M903.53,745.83c-1.33,0.76-2.69,1.5-4.07,2.2c-0.14,0.07-0.27,0.13-0.41,0.21
	c-6.62,3.33-13.82,6.01-21.66,7.93c-3.72,0.9-7.58,1.62-11.59,2.16l0.01-0.02l0.06-0.01c0.03-0.02,0.06-0.02,0.09-0.03
	c0.93-0.29,5.51-1.86,12.34-5.33c1.26-0.63,2.57-1.34,3.98-2.1c4.6-2.54,9.92-5.82,15.64-10c2.29-1.66,4.62-3.48,7.02-5.44
	c9.54-7.81,19.75-18.04,29.32-31.25c6.85-9.48,13.37-20.47,19.07-33.22c3.01-6.34,5.57-13.15,7.77-20.19
	c7.96-24.18,12.94-53.5,12.75-88.93C973.85,561.81,981.75,701.17,903.53,745.83z"/>
<radialGradient id="SVGID_18_" cx="846.46" cy="701.18" r="51.9109" gradientUnits="userSpaceOnUse">
	<stop  offset="0.3382" style="stop-color:#001AFF"/>
	<stop  offset="0.4164" style="stop-color:#011FFF"/>
	<stop  offset="0.5109" style="stop-color:#032EFF"/>
	<stop  offset="0.6139" style="stop-color:#0746FF"/>
	<stop  offset="0.7229" style="stop-color:#0D68FF"/>
	<stop  offset="0.8366" style="stop-color:#1494FF"/>
	<stop  offset="0.9526" style="stop-color:#1CC9FF"/>
	<stop  offset="1" style="stop-color:#20E1FF"/>
</radialGradient>
<path class="st17" d="M800.95,644.83c-0.02-0.02-0.03-0.04-0.04-0.06c-0.19-0.25-0.36-0.5-0.53-0.74l65.42,114.3l0.01-0.02
	c1.15-1,2.28-2.17,3.39-3.49c12.35-14.66,21.75-46.79,21.75-46.79c0.17-0.15,0.32-0.3,0.48-0.45c0.36-0.36,0.74-0.72,1.11-1.12
	l-1.53-3.55l-2.24-5.24l-5.27-12.31c-3.84,0-7.54-0.16-11.09-0.49c0,0,0,0-0.01,0c-0.73-0.07-1.46-0.14-2.18-0.22L800.95,644.83z"/>
<g class="st18">
	<g class="st19">
		<g>
			<g>
				<path class="st4" d="M1095.51,636.96c-7.84,10.08-21.84,16.69-33.19,18.45c24.18-12.37,39.08-43.1,41.78-67.6
					c-7.41,5.17-17.98,10.77-27.26,9.83c17.19-7.58,29.36-24.27,37.33-40.88c0.43-0.91,0.91-1.97,1.35-2.98
					c6.13-13.93,10.89-28.55,15.68-43c5.6-16.86,15.25-21.38,15.25-21.38c-28.32-5.07-60.76-1.55-83.38,17.38
					c-19.81,16.58-26,40.61-25.3,65.83c-5.14-11.61-5.35-24.89-1.75-36.99c-6.42,8.8-7.59,23.03-6.78,33.54
					c0,0-2.65-12.44-1.68-25.24c-13.46,26.74-14.86,54.48-9.75,83.56c-7.84-15.51-9.44-33.78-9.87-50.91
					c-6.77,23.5-9.97,47.43-8.82,71.63c0.6,12.62,4.25,23.59,9.46,35.05c-6.8-0.69-13.06,0.02-13.06,0.02
					c10.56,6.64,20.86,14.91,26.33,26.59l2.34,1.66c14.07-12.12,27.51-24.54,45.6-28.69c0,0-3.94-3.43-13.38-3.48
					C1062.01,674.79,1087.9,658.58,1095.51,636.96z"/>
				<path class="st4" d="M1104.65,517.19c-12.56,13.96-23.01,29.7-33.1,45.55c-11.61,18.24-20.43,37.01-26.56,57.9
					c-6.59,22.43-10.56,45.44-16.14,68.09c-1.77,7.19-4,14.42-6.19,21.69l1.55,1.1c14.07-12.12,27.51-24.54,45.6-28.69
					c0,0-3.94-3.43-13.38-3.48c5.6-4.56,31.49-20.77,39.09-42.39c-7.84,10.08-21.84,16.69-33.19,18.45
					c24.18-12.37,39.08-43.1,41.78-67.6c-7.41,5.17-17.98,10.77-27.26,9.83c17.19-7.58,29.36-24.27,37.33-40.88
					c0.43-0.91,0.91-1.97,1.35-2.98c6.13-13.93,10.89-28.55,15.68-43c5.6-16.86,15.25-21.38,15.25-21.38
					C1124.52,494.43,1115.6,505.01,1104.65,517.19z"/>
				<path class="st4" d="M1066.44,523.55c-5.77,8.15-9.74,20.91-9.4,30.97c0.34,10.02,2.1,21.39-0.3,29.04
					c-5.47,17.48-11.69,35.16-16.52,52.65c-7.55,27.29-16.93,60.73-24.55,79.64c2.03,0.38,10.71,3.04,12.75,3.4
					c5.03-28.75,13.4-84.19,29.21-123.9c5.8-14.57,11.72-15.62,17.16-17.99c12.35-5.38,24.23-14.33,30.92-25.39
					c7.08-11.71,10.79-23.73,13.94-37.65c2.57-11.4,7.77-17.63,7.77-17.63C1105.13,496.24,1079.89,504.57,1066.44,523.55z"/>
				<path class="st4" d="M1071.84,524.64c11.82-16.83,35.61-21.67,40.39-16.86c4.66,4.68,3.04,22.87-9.41,39.78
					c-6.66,9.04-22.95,23.45-32.76,17.51C1058.95,558.34,1062.26,538.29,1071.84,524.64z"/>
				<path class="st4" d="M1096.33,548.84c-6.25,9.32-17.37,14.55-23.84,11.26c-8.83-4.49-5.25-20.77-0.28-28.49
					c6.58-10.2,17.99-15.67,26.06-10.74C1104.68,524.78,1102.95,538.99,1096.33,548.84z"/>
			</g>
		</g>
	</g>
	<path class="st20" d="M1028.71,722.53l-7.47-2.29l-7.47-2.29c-3.67,8.19-10.7,12.03-10.7,12.03c4.81,20.06,4.8,35.55,4.8,35.55
		s9.7-14.59,23.25-26.95C1031.11,738.58,1027.34,731.42,1028.71,722.53z"/>
	<path class="st20" d="M1022.43,734.44c-0.82,2.78-3.7,4.36-6.43,3.52c-2.73-0.84-4.28-3.77-3.46-6.55c0.82-2.78,3.7-4.36,6.43-3.52
		C1021.71,728.72,1023.26,731.65,1022.43,734.44z"/>
	<polygon class="st20" points="1032.67,717.31 1014.38,711.7 1012.64,717.6 1030.93,723.21 	"/>
</g>
<g class="st18">
	<linearGradient id="SVGID_19_" gradientUnits="userSpaceOnUse" x1="1398.1117" y1="755.5812" x2="1585.4216" y2="755.5812">
		<stop  offset="0" style="stop-color:#FFFFFF"/>
		<stop  offset="1" style="stop-color:#000000"/>
	</linearGradient>
	<path class="st21" d="M1413.78,714.9c-0.22,0.25-0.43,0.5-0.65,0.75c-0.44,0.5-0.88,1-1.3,1.51c-0.25,0.31-0.49,0.62-0.73,0.93
		c-0.37,0.47-0.73,0.93-1.09,1.4c-0.25,0.34-0.49,0.68-0.73,1.02c-0.32,0.45-0.65,0.91-0.95,1.37c-0.24,0.36-0.48,0.73-0.71,1.1
		c-0.29,0.45-0.57,0.9-0.85,1.36c-0.23,0.38-0.45,0.77-0.67,1.15c-0.26,0.45-0.51,0.9-0.76,1.36c-0.21,0.4-0.42,0.8-0.63,1.2
		c-0.23,0.45-0.45,0.9-0.67,1.36c-0.2,0.41-0.39,0.83-0.58,1.25c-0.2,0.45-0.4,0.9-0.59,1.35c-0.18,0.43-0.36,0.86-0.53,1.29
		c-0.18,0.44-0.34,0.89-0.51,1.34c-0.16,0.45-0.33,0.89-0.48,1.34c-0.15,0.44-0.29,0.88-0.42,1.32c-0.15,0.47-0.3,0.93-0.43,1.4
		c-0.12,0.42-0.23,0.84-0.34,1.27c-0.13,0.49-0.27,0.98-0.38,1.48c-0.09,0.38-0.17,0.76-0.25,1.14c-0.12,0.54-0.24,1.09-0.35,1.64
		c-0.05,0.24-0.08,0.48-0.12,0.72c-0.41,2.34-0.7,4.7-0.83,7.06c-0.01,0.12-0.02,0.24-0.03,0.36c-0.04,0.7-0.05,1.41-0.06,2.11
		c0,0.22-0.01,0.44-0.02,0.67c0,0.68,0.01,1.35,0.03,2.03c0.01,0.25,0.01,0.5,0.02,0.74c0.03,0.67,0.07,1.34,0.12,2.01
		c0.02,0.25,0.03,0.5,0.05,0.76c0.06,0.67,0.13,1.34,0.21,2c0.03,0.25,0.06,0.5,0.09,0.75c0.09,0.67,0.19,1.34,0.3,2.01
		c0.04,0.24,0.08,0.47,0.12,0.71c0.12,0.68,0.25,1.36,0.4,2.04c0.05,0.22,0.09,0.43,0.14,0.65c0.16,0.69,0.32,1.39,0.5,2.08
		c0.05,0.19,0.1,0.38,0.15,0.57c0.19,0.72,0.4,1.43,0.62,2.14c0.05,0.15,0.09,0.29,0.14,0.44c0.24,0.75,0.49,1.5,0.76,2.24
		c0.03,0.08,0.06,0.15,0.08,0.22c2.19,5.94,5.33,11.62,9.44,16.77c1.42,1.78,2.94,3.5,4.58,5.15l0,0
		c23.67,23.67,62.05,23.67,85.73,0l83.84-83.84c-24.5,17.74-41.72,19.42-63.16,9.59c-10.53-4.83-17.94-9.85-25.97-16.2
		c-23.79-18.83-58.45-17.26-80.43,4.72c0,0,0,0,0,0C1415.14,713.43,1414.45,714.16,1413.78,714.9z"/>
	<g class="st19">
		<linearGradient id="SVGID_20_" gradientUnits="userSpaceOnUse" x1="1415.8571" y1="694.4864" x2="1631.5422" y2="694.4864">
			<stop  offset="0" style="stop-color:#FFFFFF"/>
			<stop  offset="1" style="stop-color:#000000"/>
		</linearGradient>
		<path class="st22" d="M1496.29,708c8.03,6.35,15.44,11.37,25.97,16.2c21.45,9.83,38.67,8.15,63.16-9.59l-83.84,83.84
			c-2.96,2.96-6.15,5.55-9.51,7.77c3.36-2.22,6.55-4.81,9.51-7.77l112.2-112.2c23.67-23.67,23.67-62.05,0-85.73l0,0
			c-23.67-23.67-62.05-23.67-85.73,0l-112.2,112.2C1437.84,690.74,1472.49,689.17,1496.29,708z"/>
	</g>
	<linearGradient id="SVGID_21_" gradientUnits="userSpaceOnUse" x1="1398.1117" y1="531.176" x2="1585.4216" y2="531.176">
		<stop  offset="0" style="stop-color:#FFFFFF"/>
		<stop  offset="1" style="stop-color:#000000"/>
	</linearGradient>
	<path class="st23" d="M1413.78,571.85c-0.22-0.25-0.43-0.5-0.65-0.75c-0.44-0.5-0.88-1-1.3-1.51c-0.25-0.31-0.49-0.62-0.73-0.93
		c-0.37-0.46-0.73-0.93-1.09-1.4c-0.25-0.34-0.49-0.68-0.73-1.02c-0.32-0.45-0.65-0.91-0.95-1.37c-0.24-0.36-0.48-0.73-0.71-1.1
		c-0.29-0.45-0.57-0.9-0.85-1.36c-0.23-0.38-0.45-0.77-0.67-1.15c-0.26-0.45-0.51-0.9-0.76-1.36c-0.21-0.4-0.42-0.8-0.63-1.2
		c-0.23-0.45-0.45-0.9-0.67-1.36c-0.2-0.41-0.39-0.83-0.58-1.25c-0.2-0.45-0.4-0.9-0.59-1.35c-0.18-0.43-0.36-0.86-0.53-1.29
		c-0.18-0.44-0.34-0.89-0.51-1.34c-0.16-0.45-0.33-0.89-0.48-1.34c-0.15-0.44-0.29-0.88-0.42-1.32c-0.15-0.47-0.3-0.93-0.43-1.4
		c-0.12-0.42-0.23-0.84-0.34-1.27c-0.13-0.49-0.27-0.98-0.38-1.48c-0.09-0.38-0.17-0.76-0.25-1.14c-0.12-0.54-0.24-1.09-0.35-1.64
		c-0.05-0.24-0.08-0.48-0.12-0.72c-0.41-2.34-0.7-4.7-0.83-7.06c-0.01-0.12-0.02-0.24-0.03-0.36c-0.04-0.7-0.05-1.41-0.06-2.11
		c0-0.22-0.01-0.44-0.02-0.67c0-0.68,0.01-1.35,0.03-2.03c0.01-0.25,0.01-0.5,0.02-0.74c0.03-0.67,0.07-1.34,0.12-2.01
		c0.02-0.25,0.03-0.5,0.05-0.76c0.06-0.67,0.13-1.34,0.21-2c0.03-0.25,0.06-0.5,0.09-0.75c0.09-0.67,0.19-1.34,0.3-2.01
		c0.04-0.24,0.08-0.47,0.12-0.71c0.12-0.68,0.25-1.36,0.4-2.04c0.05-0.22,0.09-0.43,0.14-0.65c0.16-0.69,0.32-1.39,0.5-2.08
		c0.05-0.19,0.1-0.38,0.15-0.57c0.19-0.72,0.4-1.43,0.62-2.14c0.05-0.15,0.09-0.29,0.14-0.44c0.24-0.75,0.49-1.5,0.76-2.24
		c0.03-0.08,0.06-0.15,0.08-0.22c2.19-5.94,5.33-11.62,9.44-16.77c1.42-1.78,2.94-3.5,4.58-5.15v0c23.67-23.67,62.05-23.67,85.73,0
		l83.84,83.84c-24.5-17.74-41.72-19.42-63.16-9.59c-10.53,4.83-17.94,9.85-25.97,16.2c-23.79,18.83-58.45,17.26-80.43-4.72
		c0,0,0,0,0,0C1415.14,573.32,1414.45,572.59,1413.78,571.85z"/>
	<g class="st19">
		<linearGradient id="SVGID_22_" gradientUnits="userSpaceOnUse" x1="1413.1254" y1="630.2885" x2="1631.5422" y2="630.2885">
			<stop  offset="0" style="stop-color:#FFFFFF"/>
			<stop  offset="1" style="stop-color:#000000"/>
		</linearGradient>
		<path class="st24" d="M1522.26,562.56c-10.53,4.83-17.94,9.85-25.97,16.2c-23.79,18.83-58.45,17.26-80.43-4.72c0,0,0,0,0,0
			c-0.71-0.71-1.41-1.44-2.08-2.19c-0.22-0.25-0.43-0.5-0.65-0.75c0.88,1,1.78,1.98,2.73,2.94l112.2,112.2
			c23.67,23.67,62.05,23.67,85.73,0l0,0c23.67-23.67,23.67-62.05,0-85.73l-28.37-28.37C1560.93,554.41,1543.7,552.73,1522.26,562.56
			z"/>
	</g>
</g>
<g class="st18">
	<linearGradient id="SVGID_23_" gradientUnits="userSpaceOnUse" x1="127.4144" y1="531.4284" x2="315.6657" y2="531.4284">
		<stop  offset="0" style="stop-color:#FFFFFF"/>
		<stop  offset="1" style="stop-color:#000000"/>
	</linearGradient>
	<path class="st25" d="M299.92,572.31c0.23-0.25,0.44-0.51,0.66-0.76c0.44-0.5,0.88-1,1.3-1.52c0.25-0.31,0.49-0.62,0.74-0.93
		c0.37-0.47,0.74-0.93,1.09-1.41c0.25-0.34,0.49-0.69,0.74-1.03c0.32-0.46,0.65-0.91,0.96-1.38c0.24-0.36,0.48-0.73,0.71-1.1
		c0.29-0.45,0.58-0.91,0.85-1.37c0.23-0.38,0.45-0.77,0.67-1.16c0.26-0.45,0.51-0.91,0.76-1.36c0.22-0.4,0.42-0.8,0.63-1.21
		c0.23-0.45,0.46-0.91,0.67-1.36c0.2-0.42,0.39-0.83,0.58-1.25c0.2-0.45,0.4-0.9,0.59-1.36c0.18-0.43,0.36-0.86,0.53-1.3
		c0.18-0.45,0.34-0.9,0.51-1.35c0.16-0.45,0.33-0.9,0.48-1.35c0.15-0.44,0.29-0.88,0.43-1.32c0.15-0.47,0.3-0.94,0.43-1.41
		c0.12-0.42,0.23-0.85,0.34-1.27c0.13-0.5,0.27-0.99,0.39-1.49c0.09-0.38,0.17-0.76,0.25-1.14c0.12-0.55,0.24-1.09,0.35-1.64
		c0.05-0.24,0.08-0.49,0.12-0.73c0.42-2.35,0.7-4.72,0.84-7.1c0.01-0.12,0.02-0.24,0.03-0.36c0.04-0.71,0.05-1.42,0.06-2.12
		c0-0.22,0.01-0.45,0.02-0.67c0-0.68-0.01-1.36-0.03-2.04c-0.01-0.25-0.01-0.5-0.02-0.75c-0.03-0.67-0.07-1.34-0.12-2.02
		c-0.02-0.25-0.03-0.51-0.05-0.76c-0.06-0.67-0.13-1.34-0.21-2.01c-0.03-0.25-0.06-0.5-0.09-0.75c-0.09-0.68-0.19-1.35-0.3-2.02
		c-0.04-0.24-0.08-0.48-0.12-0.71c-0.12-0.68-0.25-1.37-0.4-2.05c-0.05-0.22-0.09-0.44-0.14-0.65c-0.16-0.7-0.32-1.39-0.5-2.09
		c-0.05-0.19-0.1-0.38-0.15-0.57c-0.2-0.72-0.4-1.44-0.62-2.15c-0.05-0.15-0.1-0.29-0.14-0.44c-0.24-0.75-0.49-1.5-0.76-2.25
		c-0.03-0.08-0.06-0.15-0.09-0.23c-2.2-5.97-5.36-11.67-9.49-16.86c-1.42-1.79-2.95-3.52-4.61-5.17v0
		c-23.79-23.79-62.37-23.79-86.16,0l-84.26,84.26c24.62-17.83,41.93-19.52,63.48-9.64c10.58,4.85,18.03,9.9,26.1,16.28
		c23.91,18.93,58.74,17.34,80.83-4.74c0,0,0,0,0,0C298.55,573.79,299.25,573.05,299.92,572.31z"/>
	<g class="st19">
		<linearGradient id="SVGID_24_" gradientUnits="userSpaceOnUse" x1="81.0619" y1="592.8303" x2="297.8312" y2="592.8303">
			<stop  offset="0" style="stop-color:#FFFFFF"/>
			<stop  offset="1" style="stop-color:#000000"/>
		</linearGradient>
		<path class="st26" d="M217,579.25c-8.07-6.39-15.52-11.43-26.1-16.28c-21.56-9.88-38.86-8.19-63.48,9.64l84.26-84.26
			c2.97-2.97,6.18-5.58,9.56-7.81c-3.38,2.23-6.58,4.83-9.56,7.81L98.91,601.12c-23.79,23.79-23.79,62.37,0,86.16l0,0
			c23.79,23.79,62.37,23.79,86.16,0l112.77-112.77C275.74,596.6,240.91,598.18,217,579.25z"/>
	</g>
	<linearGradient id="SVGID_25_" gradientUnits="userSpaceOnUse" x1="127.4144" y1="756.9615" x2="315.6657" y2="756.9615">
		<stop  offset="0" style="stop-color:#FFFFFF"/>
		<stop  offset="1" style="stop-color:#000000"/>
	</linearGradient>
	<path class="st27" d="M299.92,716.08c0.23,0.25,0.44,0.51,0.66,0.76c0.44,0.5,0.88,1,1.3,1.52c0.25,0.31,0.49,0.62,0.74,0.93
		c0.37,0.47,0.74,0.93,1.09,1.41c0.25,0.34,0.49,0.69,0.74,1.03c0.32,0.46,0.65,0.91,0.96,1.38c0.24,0.36,0.48,0.73,0.71,1.1
		c0.29,0.45,0.58,0.91,0.85,1.37c0.23,0.38,0.45,0.77,0.67,1.16c0.26,0.45,0.51,0.91,0.76,1.36c0.22,0.4,0.42,0.8,0.63,1.21
		c0.23,0.45,0.46,0.91,0.67,1.36c0.2,0.42,0.39,0.83,0.58,1.25c0.2,0.45,0.4,0.9,0.59,1.36c0.18,0.43,0.36,0.86,0.53,1.3
		c0.18,0.45,0.34,0.9,0.51,1.35c0.16,0.45,0.33,0.9,0.48,1.35c0.15,0.44,0.29,0.88,0.43,1.32c0.15,0.47,0.3,0.94,0.43,1.41
		c0.12,0.42,0.23,0.85,0.34,1.27c0.13,0.5,0.27,0.99,0.39,1.49c0.09,0.38,0.17,0.76,0.25,1.14c0.12,0.55,0.24,1.09,0.35,1.64
		c0.05,0.24,0.08,0.49,0.12,0.73c0.42,2.35,0.7,4.72,0.84,7.1c0.01,0.12,0.02,0.24,0.03,0.36c0.04,0.71,0.05,1.42,0.06,2.12
		c0,0.22,0.01,0.45,0.02,0.67c0,0.68-0.01,1.36-0.03,2.04c-0.01,0.25-0.01,0.5-0.02,0.75c-0.03,0.67-0.07,1.34-0.12,2.02
		c-0.02,0.25-0.03,0.51-0.05,0.76c-0.06,0.67-0.13,1.34-0.21,2.01c-0.03,0.25-0.06,0.5-0.09,0.75c-0.09,0.67-0.19,1.35-0.3,2.02
		c-0.04,0.24-0.08,0.48-0.12,0.71c-0.12,0.68-0.25,1.37-0.4,2.05c-0.05,0.22-0.09,0.44-0.14,0.65c-0.16,0.7-0.32,1.39-0.5,2.09
		c-0.05,0.19-0.1,0.38-0.15,0.57c-0.2,0.72-0.4,1.44-0.62,2.15c-0.05,0.15-0.1,0.29-0.14,0.44c-0.24,0.75-0.49,1.5-0.76,2.25
		c-0.03,0.08-0.06,0.15-0.09,0.23c-2.2,5.97-5.36,11.67-9.49,16.86c-1.42,1.79-2.95,3.52-4.61,5.18l0,0
		c-23.79,23.79-62.37,23.79-86.16,0l-84.26-84.26c24.62,17.83,41.93,19.52,63.48,9.64c10.58-4.85,18.03-9.9,26.1-16.28
		c23.91-18.93,58.74-17.34,80.83,4.74c0,0,0,0,0,0C298.55,714.6,299.25,715.34,299.92,716.08z"/>
	<g class="st19">
		<linearGradient id="SVGID_26_" gradientUnits="userSpaceOnUse" x1="81.0619" y1="657.3508" x2="300.5766" y2="657.3508">
			<stop  offset="0" style="stop-color:#FFFFFF"/>
			<stop  offset="1" style="stop-color:#000000"/>
		</linearGradient>
		<path class="st28" d="M190.9,725.42c10.58-4.85,18.03-9.9,26.1-16.28c23.91-18.93,58.74-17.34,80.83,4.74c0,0,0,0,0,0
			c0.72,0.72,1.41,1.45,2.09,2.2c0.23,0.25,0.44,0.51,0.66,0.76c-0.88-1-1.79-2-2.75-2.95L185.06,601.12
			c-23.79-23.79-62.37-23.79-86.16,0l0,0c-23.79,23.79-23.79,62.37,0,86.16l28.51,28.51C152.03,733.61,169.34,735.3,190.9,725.42z"
			/>
	</g>
</g>
<g class="st18">
	<linearGradient id="SVGID_27_" gradientUnits="userSpaceOnUse" x1="1229.8999" y1="692.454" x2="1292.8899" y2="692.454">
		<stop  offset="0" style="stop-color:#6A30FF"/>
		<stop  offset="1" style="stop-color:#20C0FF"/>
	</linearGradient>
	<path class="st29" d="M1229.9,764.98L1229.9,764.98l0-82.06c0-34.79,28.2-62.99,62.99-62.99l0,0v82.06
		C1292.89,736.78,1264.69,764.98,1229.9,764.98z"/>
	<g class="st19">
		<linearGradient id="SVGID_28_" gradientUnits="userSpaceOnUse" x1="1138.5079" y1="581.4966" x2="1371.3027" y2="581.4966">
			<stop  offset="0" style="stop-color:#6A30FF"/>
			<stop  offset="1" style="stop-color:#20C0FF"/>
		</linearGradient>
		<path class="st30" d="M1203.46,582.04c29.94,0,65.74,0,110.77,0c45.04,0,69.16-47.97,50.97-91.53
			c4.42,18.01-3.53,57.82-58.36,57.82c-9.92,0-10.5,0-21.87,0c-44.36,0-47.16,0-47.16,0c-9.73,0-9.98,0-21.87,0
			c-58.06,0-78.55,38.06-77.39,72.03c0.93,27.39,19.03,52.13,19.03,52.13C1137.19,617.39,1173.52,582.04,1203.46,582.04z"/>
		<linearGradient id="SVGID_29_" gradientUnits="userSpaceOnUse" x1="1151.6488" y1="581.4966" x2="1384.2821" y2="581.4966">
			<stop  offset="0" style="stop-color:#6A30FF"/>
			<stop  offset="1" style="stop-color:#20C0FF"/>
		</linearGradient>
		<path class="st31" d="M1314.23,582.04c-45.04,0-80.83,0-110.77,0c-29.94,0-66.27,35.35-45.88,90.45
			c-4.42-18.01,3.53-57.82,58.36-57.82c9.92,0,10.5,0,21.87,0c0,0-45.78,0,47.16,0c9.73,0,9.98,0,21.87,0
			c58.06,0,78.55-38.06,77.39-72.03c-0.93-27.39-19.03-52.13-19.03-52.13C1383.4,534.07,1359.27,582.04,1314.23,582.04z"/>
	</g>
</g>
<g>
	<linearGradient id="SVGID_30_" gradientUnits="userSpaceOnUse" x1="1230.8208" y1="693.7976" x2="1294.5875" y2="693.7976">
		<stop  offset="0" style="stop-color:#6A30FF"/>
		<stop  offset="1" style="stop-color:#20C0FF"/>
	</linearGradient>
	<path class="st32" d="M1230.82,767.22L1230.82,767.22l0-83.08c0-35.22,28.55-63.77,63.77-63.77l0,0v83.08
		C1294.59,738.67,1266.04,767.22,1230.82,767.22z"/>
	<g>
		
			<linearGradient id="SVGID_31_" gradientUnits="userSpaceOnUse" x1="2114.0508" y1="-181.743" x2="2252.2654" y2="-181.743" gradientTransform="matrix(0.7071 0.7071 -0.7071 0.7071 -419.5674 -843.7786)">
			<stop  offset="0" style="stop-color:#9C30FF"/>
			<stop  offset="0.2416" style="stop-color:#9A33FF"/>
			<stop  offset="0.4062" style="stop-color:#923CFF"/>
			<stop  offset="0.548" style="stop-color:#854BFF"/>
			<stop  offset="0.6767" style="stop-color:#7261FF"/>
			<stop  offset="0.7967" style="stop-color:#5A7DFF"/>
			<stop  offset="0.9087" style="stop-color:#3D9EFF"/>
			<stop  offset="1" style="stop-color:#20C0FF"/>
		</linearGradient>
		<path class="st33" d="M1204.06,582.02c30.31,0,66.55,0,112.14,0c45.59,0,70.02-48.56,51.6-92.66
			c4.47,18.23-3.58,58.53-59.08,58.53c-10.04,0-10.63,0-22.14,0c-44.91,0-47.74,0-47.74,0c-9.85,0-10.11,0-22.14,0
			c-58.78,0-79.52,38.53-78.35,72.92c0.94,27.73,19.26,52.78,19.26,52.78C1136.97,617.81,1173.75,582.02,1204.06,582.02z"/>
		
			<linearGradient id="SVGID_32_" gradientUnits="userSpaceOnUse" x1="2142.6887" y1="-181.743" x2="2280.6917" y2="-181.743" gradientTransform="matrix(0.7071 0.7071 -0.7071 0.7071 -419.5674 -843.7786)">
			<stop  offset="0" style="stop-color:#3830FF"/>
			<stop  offset="1" style="stop-color:#20C0FF"/>
		</linearGradient>
		<path class="st34" d="M1316.2,582.02c-45.59,0-81.83,0-112.14,0c-30.31,0-67.09,35.79-46.44,91.57
			c-4.47-18.23,3.58-58.53,59.08-58.53c10.04,0,10.63,0,22.14,0c0,0-46.34,0,47.74,0c9.85,0,10.11,0,22.14,0
			c58.78,0,79.52-38.53,78.35-72.92c-0.94-27.73-19.26-52.78-19.26-52.78C1386.21,533.46,1361.79,582.02,1316.2,582.02z"/>
	</g>
</g>
<g>
	
		<linearGradient id="SVGID_33_" gradientUnits="userSpaceOnUse" x1="448.7875" y1="893.3563" x2="583.6443" y2="758.4995" gradientTransform="matrix(-0.7071 -0.7071 0.7071 -0.7071 1275.2228 1705.1942)">
		<stop  offset="0" style="stop-color:#00FFFF"/>
		<stop  offset="1" style="stop-color:#A119FF"/>
	</linearGradient>
	<path class="st35" d="M1414.81,714.75c-0.23,0.25-0.44,0.51-0.67,0.77c-0.45,0.51-0.89,1.02-1.32,1.54
		c-0.26,0.31-0.5,0.63-0.75,0.95c-0.37,0.47-0.75,0.95-1.11,1.43c-0.26,0.34-0.5,0.7-0.75,1.04c-0.33,0.46-0.66,0.93-0.97,1.39
		c-0.25,0.37-0.48,0.74-0.72,1.12c-0.29,0.46-0.58,0.92-0.86,1.38c-0.23,0.39-0.46,0.78-0.68,1.17c-0.26,0.46-0.52,0.92-0.77,1.38
		c-0.22,0.41-0.43,0.81-0.64,1.22c-0.23,0.46-0.46,0.92-0.68,1.38c-0.2,0.42-0.4,0.84-0.59,1.27c-0.21,0.46-0.4,0.92-0.6,1.38
		c-0.18,0.44-0.37,0.88-0.54,1.32c-0.18,0.45-0.35,0.91-0.51,1.36c-0.17,0.45-0.33,0.91-0.49,1.37c-0.15,0.44-0.29,0.89-0.43,1.34
		c-0.15,0.47-0.3,0.95-0.44,1.42c-0.12,0.43-0.23,0.86-0.35,1.29c-0.13,0.5-0.27,1-0.39,1.51c-0.09,0.38-0.17,0.77-0.25,1.16
		c-0.12,0.55-0.25,1.11-0.35,1.67c-0.05,0.25-0.08,0.49-0.12,0.74c-0.42,2.38-0.71,4.78-0.85,7.19c-0.01,0.12-0.02,0.24-0.03,0.36
		c-0.04,0.72-0.05,1.43-0.07,2.15c0,0.23-0.01,0.45-0.02,0.68c0,0.69,0.01,1.38,0.03,2.07c0.01,0.25,0.01,0.5,0.02,0.76
		c0.03,0.68,0.07,1.36,0.12,2.04c0.02,0.26,0.03,0.51,0.06,0.77c0.06,0.68,0.13,1.36,0.21,2.04c0.03,0.25,0.06,0.51,0.09,0.76
		c0.09,0.68,0.19,1.37,0.3,2.05c0.04,0.24,0.08,0.48,0.12,0.72c0.12,0.69,0.26,1.39,0.4,2.07c0.05,0.22,0.1,0.44,0.14,0.66
		c0.16,0.71,0.33,1.41,0.51,2.12c0.05,0.19,0.1,0.38,0.16,0.58c0.2,0.73,0.41,1.45,0.63,2.18c0.05,0.15,0.1,0.3,0.14,0.45
		c0.24,0.76,0.5,1.52,0.77,2.28c0.03,0.08,0.06,0.15,0.09,0.23c2.22,6.05,5.43,11.83,9.61,17.08c1.44,1.81,2.99,3.57,4.67,5.24l0,0
		c24.1,24.1,63.18,24.1,87.29,0l85.36-85.36c-24.94,18.06-42.48,19.77-64.31,9.76c-10.72-4.91-18.27-10.03-26.44-16.49
		c-24.23-19.17-59.51-17.57-81.89,4.81c0,0,0,0,0,0C1416.2,713.25,1415.5,713.99,1414.81,714.75z"/>
	<g>
		
			<linearGradient id="SVGID_34_" gradientUnits="userSpaceOnUse" x1="312.9333" y1="662.6589" x2="509.8946" y2="554.6478" gradientTransform="matrix(-1 0 0 -1 1950.224 1296)">
			<stop  offset="0" style="stop-color:#00FFFF"/>
			<stop  offset="1" style="stop-color:#7519FF"/>
		</linearGradient>
		<path class="st36" d="M1498.82,707.72c8.17,6.47,15.72,11.58,26.44,16.49c21.84,10.01,39.37,8.3,64.31-9.76l-85.36,85.36
			c-3.01,3.01-6.26,5.65-9.68,7.91c3.42-2.26,6.67-4.9,9.68-7.91l114.24-114.24c24.1-24.1,24.1-63.18,0-87.29l0,0
			c-24.1-24.1-63.18-24.1-87.29,0l-114.24,114.24C1439.31,690.14,1474.59,688.54,1498.82,707.72z"/>
	</g>
	
		<linearGradient id="SVGID_35_" gradientUnits="userSpaceOnUse" x1="505.7229" y1="961.7918" x2="640.5798" y2="826.9349" gradientTransform="matrix(-0.7071 0.7071 0.7071 0.7071 1267.0911 -509.9995)">
		<stop  offset="0" style="stop-color:#00FFFF"/>
		<stop  offset="1" style="stop-color:#7519FF"/>
	</linearGradient>
	<path class="st37" d="M1414.81,569.1c-0.23-0.25-0.44-0.51-0.67-0.77c-0.45-0.51-0.89-1.02-1.32-1.54
		c-0.26-0.31-0.5-0.63-0.75-0.95c-0.37-0.47-0.75-0.95-1.11-1.43c-0.26-0.34-0.5-0.7-0.75-1.04c-0.33-0.46-0.66-0.93-0.97-1.39
		c-0.25-0.37-0.48-0.74-0.72-1.12c-0.29-0.46-0.58-0.92-0.86-1.38c-0.23-0.39-0.46-0.78-0.68-1.17c-0.26-0.46-0.52-0.92-0.77-1.38
		c-0.22-0.41-0.43-0.81-0.64-1.22c-0.23-0.46-0.46-0.92-0.68-1.38c-0.2-0.42-0.4-0.84-0.59-1.27c-0.21-0.46-0.4-0.92-0.6-1.38
		c-0.18-0.44-0.37-0.88-0.54-1.32c-0.18-0.45-0.35-0.91-0.51-1.36c-0.17-0.45-0.33-0.91-0.49-1.37c-0.15-0.44-0.29-0.89-0.43-1.34
		c-0.15-0.47-0.3-0.95-0.44-1.42c-0.12-0.43-0.23-0.86-0.35-1.29c-0.13-0.5-0.27-1-0.39-1.51c-0.09-0.38-0.17-0.77-0.25-1.16
		c-0.12-0.55-0.25-1.11-0.35-1.67c-0.05-0.25-0.08-0.49-0.12-0.74c-0.42-2.38-0.71-4.78-0.85-7.19c-0.01-0.12-0.02-0.24-0.03-0.36
		c-0.04-0.72-0.05-1.43-0.07-2.15c0-0.23-0.01-0.45-0.02-0.68c0-0.69,0.01-1.38,0.03-2.07c0.01-0.25,0.01-0.5,0.02-0.76
		c0.03-0.68,0.07-1.36,0.12-2.04c0.02-0.26,0.03-0.51,0.06-0.77c0.06-0.68,0.13-1.36,0.21-2.04c0.03-0.25,0.06-0.51,0.09-0.76
		c0.09-0.68,0.19-1.37,0.3-2.05c0.04-0.24,0.08-0.48,0.12-0.72c0.12-0.69,0.26-1.39,0.4-2.07c0.05-0.22,0.1-0.44,0.14-0.66
		c0.16-0.71,0.33-1.41,0.51-2.11c0.05-0.19,0.1-0.38,0.16-0.58c0.2-0.73,0.41-1.45,0.63-2.18c0.05-0.15,0.1-0.3,0.14-0.45
		c0.24-0.76,0.5-1.52,0.77-2.28c0.03-0.08,0.06-0.15,0.09-0.23c2.22-6.05,5.43-11.83,9.61-17.08c1.44-1.81,2.99-3.57,4.67-5.24v0
		c24.1-24.1,63.18-24.1,87.29,0l85.36,85.36c-24.94-18.06-42.48-19.77-64.31-9.76c-10.72,4.91-18.27,10.03-26.44,16.49
		c-24.23,19.17-59.51,17.57-81.89-4.81c0,0,0,0,0,0C1416.2,570.59,1415.5,569.85,1414.81,569.1z"/>
	<g>
		
			<linearGradient id="SVGID_36_" gradientUnits="userSpaceOnUse" x1="313.6876" y1="667.4059" x2="536.0746" y2="667.4059" gradientTransform="matrix(-1 0 0 -1 1950.224 1296)">
			<stop  offset="0" style="stop-color:#7519FF"/>
			<stop  offset="1" style="stop-color:#00FFFF"/>
		</linearGradient>
		<path class="st38" d="M1525.26,559.63c-10.72,4.91-18.27,10.03-26.44,16.49c-24.23,19.17-59.51,17.57-81.89-4.81c0,0,0,0,0,0
			c-0.73-0.73-1.43-1.47-2.12-2.23c-0.23-0.25-0.44-0.51-0.66-0.77c0.89,1.02,1.81,2.02,2.78,2.99l114.24,114.24
			c24.1,24.1,63.18,24.1,87.29,0l0,0c24.1-24.1,24.1-63.18,0-87.29l-28.88-28.88C1564.64,551.34,1547.1,549.63,1525.26,559.63z"/>
	</g>
</g>
<g>
	
		<linearGradient id="SVGID_37_" gradientUnits="userSpaceOnUse" x1="68.4953" y1="1272.8226" x2="203.3521" y2="1137.9658" gradientTransform="matrix(0.7071 -0.7071 -0.7071 -0.7071 979.6008 1705.1942)">
		<stop  offset="0" style="stop-color:#7519FF"/>
		<stop  offset="1" style="stop-color:#00FFFF"/>
	</linearGradient>
	<path class="st39" d="M302.78,715.33c0.23,0.25,0.44,0.51,0.67,0.77c0.45,0.51,0.89,1.02,1.32,1.54c0.26,0.31,0.5,0.63,0.75,0.95
		c0.37,0.47,0.75,0.95,1.11,1.43c0.26,0.34,0.5,0.7,0.75,1.04c0.33,0.46,0.66,0.93,0.97,1.39c0.25,0.37,0.48,0.74,0.72,1.12
		c0.29,0.46,0.58,0.92,0.86,1.38c0.23,0.39,0.46,0.78,0.68,1.17c0.26,0.46,0.52,0.92,0.77,1.38c0.22,0.41,0.43,0.81,0.64,1.22
		c0.23,0.46,0.46,0.92,0.68,1.38c0.2,0.42,0.4,0.84,0.59,1.27c0.21,0.46,0.4,0.92,0.6,1.38c0.18,0.44,0.37,0.88,0.54,1.32
		c0.18,0.45,0.35,0.91,0.51,1.36c0.17,0.45,0.33,0.91,0.49,1.37c0.15,0.44,0.29,0.89,0.43,1.34c0.15,0.47,0.3,0.95,0.44,1.42
		c0.12,0.43,0.23,0.86,0.35,1.29c0.13,0.5,0.27,1,0.39,1.51c0.09,0.38,0.17,0.77,0.25,1.16c0.12,0.55,0.25,1.11,0.35,1.67
		c0.05,0.25,0.08,0.49,0.12,0.74c0.42,2.38,0.71,4.78,0.85,7.19c0.01,0.12,0.02,0.24,0.03,0.36c0.04,0.72,0.05,1.43,0.07,2.15
		c0,0.23,0.01,0.45,0.02,0.68c0,0.69-0.01,1.38-0.03,2.07c-0.01,0.25-0.01,0.5-0.02,0.76c-0.03,0.68-0.07,1.36-0.12,2.04
		c-0.02,0.26-0.03,0.51-0.06,0.77c-0.06,0.68-0.13,1.36-0.21,2.04c-0.03,0.25-0.06,0.51-0.09,0.76c-0.09,0.68-0.19,1.37-0.3,2.05
		c-0.04,0.24-0.08,0.48-0.12,0.72c-0.12,0.69-0.26,1.39-0.4,2.07c-0.05,0.22-0.1,0.44-0.14,0.66c-0.16,0.71-0.33,1.41-0.51,2.12
		c-0.05,0.19-0.1,0.38-0.16,0.58c-0.2,0.73-0.4,1.45-0.63,2.18c-0.05,0.15-0.1,0.3-0.14,0.45c-0.24,0.76-0.5,1.52-0.77,2.28
		c-0.03,0.08-0.06,0.15-0.09,0.23c-2.23,6.05-5.43,11.83-9.61,17.08c-1.44,1.81-2.99,3.57-4.67,5.24l0,0
		c-24.1,24.1-63.18,24.1-87.29,0l-85.36-85.36c24.94,18.06,42.48,19.77,64.31,9.76c10.72-4.91,18.27-10.03,26.44-16.49
		c24.23-19.17,59.51-17.57,81.89,4.81c0,0,0,0,0,0C301.4,713.83,302.1,714.58,302.78,715.33z"/>
	<g>
		
			<linearGradient id="SVGID_38_" gradientUnits="userSpaceOnUse" x1="-224.2919" y1="662.0749" x2="-27.3306" y2="554.0638" gradientTransform="matrix(1 0 0 -1 304.5996 1296)">
			<stop  offset="0" style="stop-color:#00FFFF"/>
			<stop  offset="1" style="stop-color:#7519FF"/>
		</linearGradient>
		<path class="st40" d="M218.78,708.3c-8.17,6.47-15.72,11.58-26.44,16.49c-21.84,10.01-39.37,8.3-64.31-9.76l85.36,85.36
			c3.01,3.01,6.26,5.65,9.68,7.91c-3.42-2.26-6.67-4.9-9.68-7.91L99.14,686.15c-24.1-24.1-24.1-63.18,0-87.29l0,0
			c24.1-24.1,63.18-24.1,87.29,0l114.24,114.24C278.29,690.73,243,689.13,218.78,708.3z"/>
	</g>
	
		<linearGradient id="SVGID_39_" gradientUnits="userSpaceOnUse" x1="126.2566" y1="1342.084" x2="261.1134" y2="1207.2272" gradientTransform="matrix(0.7071 0.7071 -0.7071 0.7071 987.7325 -509.9995)">
		<stop  offset="0" style="stop-color:#00FFFF"/>
		<stop  offset="1" style="stop-color:#A919FF"/>
	</linearGradient>
	<path class="st41" d="M302.78,569.68c0.23-0.25,0.44-0.51,0.67-0.77c0.45-0.51,0.89-1.02,1.32-1.54c0.26-0.31,0.5-0.63,0.75-0.95
		c0.37-0.47,0.75-0.95,1.11-1.43c0.26-0.34,0.5-0.7,0.75-1.04c0.33-0.46,0.66-0.93,0.97-1.39c0.25-0.37,0.48-0.74,0.72-1.12
		c0.29-0.46,0.58-0.92,0.86-1.38c0.23-0.39,0.46-0.78,0.68-1.17c0.26-0.46,0.52-0.92,0.77-1.38c0.22-0.41,0.43-0.81,0.64-1.22
		c0.23-0.46,0.46-0.92,0.68-1.38c0.2-0.42,0.4-0.84,0.59-1.27c0.21-0.46,0.4-0.92,0.6-1.38c0.18-0.44,0.37-0.88,0.54-1.32
		c0.18-0.45,0.35-0.91,0.51-1.36c0.17-0.45,0.33-0.91,0.49-1.37c0.15-0.44,0.29-0.89,0.43-1.34c0.15-0.47,0.3-0.95,0.44-1.42
		c0.12-0.43,0.23-0.86,0.35-1.29c0.13-0.5,0.27-1,0.39-1.51c0.09-0.38,0.17-0.77,0.25-1.16c0.12-0.55,0.25-1.11,0.35-1.67
		c0.05-0.25,0.08-0.49,0.12-0.74c0.42-2.38,0.71-4.78,0.85-7.19c0.01-0.12,0.02-0.24,0.03-0.36c0.04-0.72,0.05-1.43,0.07-2.15
		c0-0.23,0.01-0.45,0.02-0.68c0-0.69-0.01-1.38-0.03-2.07c-0.01-0.25-0.01-0.5-0.02-0.76c-0.03-0.68-0.07-1.36-0.12-2.04
		c-0.02-0.26-0.03-0.51-0.06-0.77c-0.06-0.68-0.13-1.36-0.21-2.04c-0.03-0.25-0.06-0.51-0.09-0.76c-0.09-0.68-0.19-1.37-0.3-2.05
		c-0.04-0.24-0.08-0.48-0.12-0.72c-0.12-0.69-0.26-1.39-0.4-2.07c-0.05-0.22-0.1-0.44-0.14-0.66c-0.16-0.71-0.33-1.41-0.51-2.11
		c-0.05-0.19-0.1-0.38-0.16-0.58c-0.2-0.73-0.4-1.45-0.63-2.18c-0.05-0.15-0.1-0.3-0.14-0.45c-0.24-0.76-0.5-1.52-0.77-2.28
		c-0.03-0.08-0.06-0.15-0.09-0.23c-2.23-6.05-5.43-11.83-9.61-17.08c-1.44-1.81-2.99-3.57-4.67-5.24v0
		c-24.1-24.1-63.18-24.1-87.29,0l-85.36,85.36c24.94-18.06,42.48-19.77,64.31-9.76c10.72,4.91,18.27,10.03,26.44,16.49
		c24.23,19.17,59.51,17.57,81.89-4.81c0,0,0,0,0,0C301.4,571.18,302.1,570.44,302.78,569.68z"/>
	<g>
		
			<linearGradient id="SVGID_40_" gradientUnits="userSpaceOnUse" x1="-223.5377" y1="666.8219" x2="-1.1506" y2="666.8219" gradientTransform="matrix(1 0 0 -1 304.5996 1296)">
			<stop  offset="0" style="stop-color:#7519FF"/>
			<stop  offset="1" style="stop-color:#00FFFF"/>
		</linearGradient>
		<path class="st42" d="M192.33,560.22c10.72,4.91,18.27,10.03,26.44,16.49c24.23,19.17,59.51,17.57,81.89-4.81c0,0,0,0,0,0
			c0.73-0.73,1.43-1.47,2.12-2.23c0.23-0.25,0.44-0.51,0.66-0.77c-0.89,1.02-1.81,2.02-2.78,2.99L186.43,686.15
			c-24.1,24.1-63.18,24.1-87.29,0l0,0c-24.1-24.1-24.1-63.18,0-87.29l28.88-28.88C152.96,551.92,170.5,550.21,192.33,560.22z"/>
	</g>
</g>
<g>
	<g>
		<g>
			<g>
				<linearGradient id="SVGID_41_" gradientUnits="userSpaceOnUse" x1="1075.5063" y1="714.9438" x2="1068.8743" y2="470.2934">
					<stop  offset="0" style="stop-color:#6441C7"/>
					<stop  offset="0.087" style="stop-color:#505BD2"/>
					<stop  offset="0.2864" style="stop-color:#2592EA"/>
					<stop  offset="0.4354" style="stop-color:#0AB4F9"/>
					<stop  offset="0.5162" style="stop-color:#00C0FE"/>
					<stop  offset="0.5574" style="stop-color:#08BAFC"/>
					<stop  offset="0.623" style="stop-color:#20A9F7"/>
					<stop  offset="0.7048" style="stop-color:#458CEF"/>
					<stop  offset="0.7998" style="stop-color:#7A64E3"/>
					<stop  offset="0.9042" style="stop-color:#BC33D5"/>
					<stop  offset="1" style="stop-color:#FF00C6"/>
				</linearGradient>
				<path class="st43" d="M1098.01,639.15c-8.32,10.7-23.18,17.71-35.22,19.58c25.66-13.13,41.47-45.73,44.33-71.74
					c-7.86,5.48-19.08,11.43-28.93,10.43c18.24-8.04,31.16-25.75,39.61-43.38c0.46-0.96,0.96-2.1,1.43-3.16
					c6.5-14.78,11.55-30.3,16.64-45.63c5.94-17.89,16.18-22.69,16.18-22.69c-30.06-5.38-64.48-1.65-88.48,18.44
					c-21.03,17.6-27.59,43.09-26.85,69.86c-5.45-12.32-5.67-26.42-1.85-39.25c-6.81,9.34-8.05,24.44-7.19,35.59
					c0,0-2.81-13.21-1.78-26.78c-14.28,28.38-15.77,57.82-10.34,88.67c-8.32-16.45-10.02-35.85-10.47-54.02
					c-7.19,24.94-10.58,50.34-9.36,76.01c0.64,13.39,4.51,25.03,10.04,37.19c-7.21-0.73-13.86,0.02-13.86,0.02
					c11.21,7.05,22.14,15.82,27.93,28.21l2.48,1.76c14.93-12.87,29.19-26.04,48.39-30.44c0,0-4.18-3.64-14.2-3.7
					C1062.47,679.3,1089.94,662.09,1098.01,639.15z"/>
				
					<linearGradient id="SVGID_42_" gradientUnits="userSpaceOnUse" x1="1062.2695" y1="612.4574" x2="1121.8265" y2="647.199" gradientTransform="matrix(0.9945 -0.1051 0.1051 0.9945 -64.1497 89.2227)">
					<stop  offset="0" style="stop-color:#3A3F7F"/>
					<stop  offset="0.175" style="stop-color:#575B92;stop-opacity:0.825"/>
					<stop  offset="0.5554" style="stop-color:#A1A4C2;stop-opacity:0.4446"/>
					<stop  offset="1" style="stop-color:#FFFFFF;stop-opacity:0"/>
				</linearGradient>
				<path class="st44" d="M1107.71,512.06c-13.32,14.81-24.42,31.51-35.13,48.33c-12.32,19.35-21.68,39.27-28.19,61.44
					c-6.99,23.81-11.2,48.22-17.12,72.26c-1.88,7.63-4.24,15.3-6.57,23.02l1.64,1.17c14.93-12.87,29.19-26.04,48.39-30.44
					c0,0-4.18-3.64-14.2-3.7c5.94-4.84,33.41-22.04,41.49-44.98c-8.32,10.7-23.18,17.71-35.22,19.58
					c25.66-13.13,41.47-45.73,44.33-71.74c-7.86,5.48-19.08,11.43-28.93,10.43c18.24-8.04,31.16-25.75,39.61-43.38
					c0.46-0.96,0.96-2.1,1.43-3.16c6.5-14.78,11.55-30.3,16.64-45.63c5.94-17.89,16.18-22.69,16.18-22.69
					C1128.8,487.9,1119.34,499.13,1107.71,512.06z"/>
				
					<linearGradient id="SVGID_43_" gradientUnits="userSpaceOnUse" x1="1037.0536" y1="380.0688" x2="989.0444" y2="637.5727" gradientTransform="matrix(0.8747 0.4846 -0.4846 0.8747 408.2079 -314.3781)">
					<stop  offset="0" style="stop-color:#363D40"/>
					<stop  offset="1" style="stop-color:#090B1D"/>
				</linearGradient>
				<path class="st45" d="M1067.17,518.81c-6.13,8.65-10.34,22.19-9.97,32.86c0.36,10.63,2.23,22.69-0.31,30.82
					c-5.81,18.55-12.4,37.31-17.53,55.87c-8.01,28.96-17.96,64.45-26.05,84.51c2.16,0.4,11.37,3.22,13.53,3.61
					c5.34-30.51,14.22-89.34,30.99-131.47c6.16-15.46,12.44-16.58,18.21-19.09c13.11-5.71,25.72-15.21,32.81-26.95
					c7.51-12.43,11.45-25.18,14.79-39.95c2.73-12.1,8.24-18.71,8.24-18.71C1108.23,489.83,1081.44,498.66,1067.17,518.81z"/>
				
					<linearGradient id="SVGID_44_" gradientUnits="userSpaceOnUse" x1="1006.2211" y1="379.9491" x2="1006.2211" y2="442.7184" gradientTransform="matrix(0.8747 0.4846 -0.4846 0.8747 408.2079 -314.3781)">
					<stop  offset="8.722000e-03" style="stop-color:#FF00C6"/>
					<stop  offset="0.2611" style="stop-color:#EB10D1"/>
					<stop  offset="1" style="stop-color:#B43BEF"/>
				</linearGradient>
				<path class="st46" d="M1072.9,519.96c12.55-17.86,37.79-22.99,42.86-17.9c4.95,4.97,3.23,24.27-9.99,42.22
					c-7.06,9.59-24.36,24.89-34.76,18.58C1059.23,555.72,1062.73,534.44,1072.9,519.96z"/>
				
					<linearGradient id="SVGID_45_" gradientUnits="userSpaceOnUse" x1="1021.7433" y1="426.2388" x2="1021.7433" y2="381.5143" gradientTransform="matrix(0.7851 0.4347 -0.4318 0.779 456.5623 -219.0254)">
					<stop  offset="0" style="stop-color:#3A33DE"/>
					<stop  offset="1" style="stop-color:#52FFE2"/>
				</linearGradient>
				<path class="st47" d="M1098.89,545.64c-6.64,9.89-18.43,15.44-25.3,11.95c-9.38-4.76-5.57-22.04-0.29-30.23
					c6.98-10.83,19.09-16.63,27.66-11.39C1107.74,520.11,1105.91,535.18,1098.89,545.64z"/>
			</g>
		</g>
	</g>
	<radialGradient id="SVGID_46_" cx="1014.8013" cy="750.3347" r="20.723" gradientUnits="userSpaceOnUse">
		<stop  offset="0" style="stop-color:#03DAFF"/>
		<stop  offset="0.1105" style="stop-color:#06D5FF"/>
		<stop  offset="0.2475" style="stop-color:#0DC5FF"/>
		<stop  offset="0.3985" style="stop-color:#19ACFF"/>
		<stop  offset="0.5596" style="stop-color:#2A89FF"/>
		<stop  offset="0.7287" style="stop-color:#405CFF"/>
		<stop  offset="0.902" style="stop-color:#5A25FF"/>
		<stop  offset="1" style="stop-color:#6B03FF"/>
	</radialGradient>
	<path class="st48" d="M1027.13,729.95l-7.93-2.43l-7.93-2.43c-3.9,8.69-11.35,12.76-11.35,12.76c5.1,21.29,5.09,37.73,5.09,37.73
		s10.29-15.48,24.67-28.6C1029.68,746.98,1025.67,739.39,1027.13,729.95z"/>
	<path class="st49" d="M1020.47,742.59c-0.87,2.95-3.93,4.63-6.83,3.74c-2.9-0.89-4.54-4-3.67-6.96c0.87-2.95,3.93-4.63,6.83-3.74
		C1019.7,736.52,1021.34,739.63,1020.47,742.59z"/>
	
		<linearGradient id="SVGID_47_" gradientUnits="userSpaceOnUse" x1="1024.5161" y1="664.8624" x2="1044.8478" y2="664.8624" gradientTransform="matrix(0.9576 0.2881 -0.2881 0.9576 221.443 -210.1952)">
		<stop  offset="0" style="stop-color:#363D40"/>
		<stop  offset="1" style="stop-color:#090B1D"/>
	</linearGradient>
	<polygon class="st50" points="1031.33,724.41 1011.93,718.46 1010.08,724.72 1029.49,730.67 	"/>
</g>
<g>
	<g>
		<path class="st51" d="M643.07,803.15c2.4-4.11,5.66-7.24,10.22-8.78c4.27-1.45,8.83-1.87,13.22-2.8
			c4.68-0.99,9.09-2.76,13.66-4.14c4.08-1.23,8.23-2.25,12.39-3.19c4.95-1.12,9.91-2.14,14.86-3.22c6.17-1.34,12.3-3.11,18.49-4.26
			c3.22-0.6,6.58-0.18,9.22,1.88c2.45,1.92,4.02,4.81,5.24,7.62c2.35,5.44,3.12,11.92,6.42,16.91c2.59,3.91,8.26,6.88,12.9,5.22
			c4.49-1.6,7.31-6.21,9.64-10.08c2.38-3.96,4.45-8.79,8.03-11.85c1.22-1.04,2.58-1.59,3.99-1.29c2.48,0.53,4.07,2.64,5.78,4.31
			c4.35,4.23,11.65,4.31,17.3,4.13c8.15-0.26,16.24-1.65,24.27-2.96c6.47-1.05,13.28-2.62,19.87-2.24c2.83,0.17,4.05,1.58,6.57,3.07
			c3.33,1.98,7,3.41,10.85,3.89c6.66,0.84,13.08-1.45,18.66-4.95c5.68-3.56,10.58-8.16,15.71-12.43c3.82-3.19,8.51-7.26,13.73-7.58
			c2.52-0.15,5.18,0.72,6.9,2.63c2.41,2.67,2.95,6.7,3.54,10.1c0.6,3.49,1,7.32,2.88,10.4c2.25,3.68,6.03,4.18,10.03,4.48
			c10.64,0.8,21.03-2.05,30.74-6.19c8.72-3.72,16.87-8.71,25.69-12.2c3.38-1.34,6.93-2.46,10.59-2.61c1.92-0.08,1.93-3.08,0-3
			c-8.24,0.34-15.96,4.57-23.16,8.2c-9.17,4.62-18.39,9.34-28.48,11.6c-5.4,1.21-10.96,1.65-16.48,1.1
			c-1.91-0.19-3.94-0.31-5.39-1.7c-1.13-1.08-1.72-2.61-2.15-4.08c-1.95-6.61-1.15-16.01-7.92-20.05
			c-4.73-2.83-10.12-1.67-14.65,0.93c-5.45,3.14-10.04,7.66-14.85,11.67c-5.03,4.19-10.52,8.38-16.94,10.11
			c-7.51,2.02-14.6-0.51-20.76-4.88c-1.78-1.27-3.89-1.52-6.04-1.55c-3.08-0.05-6.16,0.34-9.21,0.75
			c-8.01,1.08-15.96,2.65-23.98,3.63c-6.84,0.84-14.64,1.89-21.35-0.26c-2.75-0.88-4.09-2.67-6.18-4.51
			c-1.76-1.54-3.89-2.89-6.3-2.92c-4.48-0.06-7.51,4.23-9.66,7.59c-2.7,4.22-4.81,8.96-8.14,12.75c-1.29,1.46-2.83,2.87-4.76,3.32
			c-2.08,0.49-4.21-0.42-5.97-1.6c-4.73-3.17-5.59-9.59-7.31-14.64c-2.02-5.92-4.86-12.66-11.12-15.11
			c-3.92-1.54-7.91-0.72-11.86,0.24c-6.09,1.48-12.21,2.85-18.34,4.17c-8.94,1.92-17.95,3.69-26.65,6.53
			c-4.77,1.56-9.4,3.08-14.36,3.97c-4.25,0.77-8.58,1.37-12.54,3.2c-4.13,1.91-7.18,5.25-9.44,9.13
			C639.51,803.31,642.1,804.82,643.07,803.15L643.07,803.15z"/>
	</g>
</g>
</svg>
